<svg width="1566" height="351" viewBox="0 0 1566 351" fill="none" xmlns="http://www.w3.org/2000/svg">
<path d="M1432.74 36.1353C1464.13 41.7345 1495.94 44.6358 1527.83 44.8081C1531.01 63.2266 1535.06 81.4788 1539.94 99.5054L1551.27 100.384C1554.84 113.541 1558.86 126.578 1563.32 139.471L1564 141.432C1532.11 141.26 1500.3 138.358 1468.91 132.758L1468.17 132.625L1467.49 130.665C1463.19 118.23 1459.3 105.663 1455.82 92.9829L1511.87 97.3286L1516.3 97.644L1443.32 87.7397C1438.79 70.6759 1435.01 53.4137 1432 36.0024L1432.74 36.1353Z" fill="#FF7423"/>
<mask id="mask0" style="mask-type:alpha" maskUnits="userSpaceOnUse" x="1455" y="92" width="109" height="50">
<path d="M1551.27 100.383C1554.84 113.54 1558.86 126.577 1563.32 139.47L1564 141.431C1532.11 141.259 1500.3 138.358 1468.91 132.758L1468.17 132.625L1467.49 130.665C1463.19 118.23 1459.3 105.663 1455.82 92.9829L1551.27 100.383Z" fill="#D9D9D9"/>
</mask>
<g mask="url(#mask0)">
<g filter="url(#shadow)">
<path d="M1435.88 78.7378L1514.88 97.3858L1448.31 99.1988L1435.88 78.7378Z" fill="#171719" fill-opacity="0.2"/>
</g>
</g>
<path d="M135.58 127.986C134.619 118.987 130.566 111.98 123.422 106.966C116.346 101.951 107.141 99.4439 95.807 99.4439C87.8386 99.4439 81.0036 100.646 75.302 103.05C69.6005 105.455 65.2385 108.717 62.216 112.839C59.1935 116.961 57.6479 121.666 57.5792 126.956C57.5792 131.352 58.5753 135.164 60.5674 138.393C62.6282 141.622 65.4102 144.369 68.9136 146.636C72.4169 148.834 76.2981 150.689 80.5571 152.2C84.8161 153.712 89.1094 154.982 93.437 156.013L113.221 160.959C121.189 162.813 128.848 165.321 136.199 168.481C143.617 171.64 150.246 175.625 156.085 180.433C161.993 185.242 166.664 191.046 170.099 197.847C173.533 204.648 175.251 212.616 175.251 221.752C175.251 234.117 172.091 245.005 165.771 254.416C159.451 263.758 150.315 271.074 138.362 276.363C126.478 281.584 112.087 284.194 95.1887 284.194C78.7711 284.194 64.5172 281.653 52.4272 276.569C40.4059 271.486 30.9949 264.067 24.1943 254.313C17.4624 244.558 13.8216 232.674 13.2721 218.661H50.8816C51.4312 226.011 53.698 232.125 57.6822 237.002C61.6664 241.879 66.8528 245.52 73.2412 247.924C79.6984 250.328 86.9112 251.531 94.8796 251.531C103.191 251.531 110.473 250.294 116.724 247.821C123.044 245.28 127.99 241.776 131.562 237.311C135.134 232.777 136.954 227.488 137.023 221.443C136.954 215.948 135.34 211.414 132.18 207.842C129.02 204.201 124.589 201.179 118.888 198.774C113.255 196.301 106.66 194.103 99.1042 192.18L75.096 185.997C57.7166 181.532 43.978 174.766 33.8801 165.698C23.8509 156.562 18.8362 144.438 18.8362 129.325C18.8362 116.892 22.2022 106.004 28.9341 96.6618C35.7348 87.3196 44.974 80.0724 56.6518 74.9204C68.3297 69.6998 81.5531 67.0894 96.3222 67.0894C111.297 67.0894 124.418 69.6998 135.683 74.9204C147.018 80.0724 155.913 87.2509 162.371 96.4558C168.828 105.592 172.159 116.102 172.366 127.986H135.58ZM233.376 69.9745V281H196.076V69.9745H233.376ZM260.127 281V122.731H297.427V281H260.127ZM278.88 100.268C272.972 100.268 267.889 98.3105 263.63 94.395C259.371 90.4108 257.241 85.6366 257.241 80.0724C257.241 74.4396 259.371 69.6654 263.63 65.7499C267.889 61.7657 272.972 59.7736 278.88 59.7736C284.856 59.7736 289.939 61.7657 294.13 65.7499C298.389 69.6654 300.518 74.4396 300.518 80.0724C300.518 85.6366 298.389 90.4108 294.13 94.395C289.939 98.3105 284.856 100.268 278.88 100.268ZM393.214 284.091C377.414 284.091 363.847 280.622 352.513 273.684C341.247 266.746 332.558 257.163 326.444 244.936C320.399 232.64 317.376 218.489 317.376 202.484C317.376 186.409 320.468 172.224 326.65 159.928C332.832 147.563 341.556 137.946 352.822 131.077C364.157 124.139 377.552 120.67 393.008 120.67C405.853 120.67 417.222 123.04 427.114 127.78C437.074 132.451 445.008 139.08 450.916 147.667C456.824 156.184 460.19 166.145 461.014 177.548H425.362C423.92 169.923 420.485 163.569 415.058 158.486C409.7 153.334 402.522 150.758 393.523 150.758C385.898 150.758 379.2 152.819 373.43 156.94C367.66 160.993 363.16 166.832 359.932 174.457C356.772 182.082 355.192 191.218 355.192 201.865C355.192 212.65 356.772 221.924 359.932 229.686C363.092 237.38 367.522 243.322 373.224 247.512C378.994 251.634 385.761 253.694 393.523 253.694C399.018 253.694 403.93 252.664 408.258 250.603C412.654 248.474 416.329 245.417 419.283 241.433C422.237 237.449 424.263 232.606 425.362 226.904H461.014C460.121 238.101 456.824 248.027 451.122 256.683C445.421 265.269 437.658 272.001 427.835 276.878C418.012 281.687 406.472 284.091 393.214 284.091ZM550.103 284.091C534.235 284.091 520.531 280.794 508.99 274.199C497.519 267.536 488.691 258.125 482.509 245.966C476.327 233.739 473.235 219.348 473.235 202.793C473.235 186.513 476.327 172.224 482.509 159.928C488.76 147.563 497.484 137.946 508.681 131.077C519.878 124.139 533.033 120.67 548.145 120.67C557.9 120.67 567.105 122.25 575.76 125.41C584.484 128.501 592.178 133.31 598.841 139.836C605.573 146.361 610.862 154.673 614.709 164.771C618.556 174.8 620.479 186.753 620.479 200.629V212.066H490.752V186.925H584.725C584.656 179.781 583.11 173.426 580.088 167.862C577.065 162.229 572.841 157.799 567.414 154.57C562.056 151.342 555.805 149.727 548.661 149.727C541.036 149.727 534.338 151.582 528.568 155.291C522.798 158.932 518.298 163.741 515.07 169.717C511.91 175.625 510.295 182.116 510.227 189.192V211.139C510.227 220.344 511.91 228.244 515.276 234.838C518.642 241.364 523.347 246.379 529.392 249.882C535.437 253.317 542.513 255.034 550.618 255.034C556.045 255.034 560.957 254.278 565.353 252.767C569.749 251.187 573.562 248.886 576.79 245.863C580.019 242.841 582.458 239.097 584.106 234.632L618.934 238.548C616.736 247.752 612.545 255.79 606.363 262.659C600.249 269.46 592.418 274.749 582.87 278.527C573.321 282.236 562.399 284.091 550.103 284.091ZM672.242 281L627.523 122.731H665.545L693.365 234.014H694.808L723.247 122.731H760.857L789.296 233.396H790.841L818.25 122.731H856.374L811.552 281H772.706L743.031 174.045H740.867L711.191 281H672.242ZM935.314 284.091C919.858 284.091 906.463 280.691 895.129 273.89C883.794 267.09 875.002 257.576 868.751 245.348C862.568 233.121 859.477 218.833 859.477 202.484C859.477 186.135 862.568 171.812 868.751 159.516C875.002 147.22 883.794 137.672 895.129 130.871C906.463 124.07 919.858 120.67 935.314 120.67C950.77 120.67 964.165 124.07 975.5 130.871C986.834 137.672 995.593 147.22 1001.77 159.516C1008.03 171.812 1011.15 186.135 1011.15 202.484C1011.15 218.833 1008.03 233.121 1001.77 245.348C995.593 257.576 986.834 267.09 975.5 273.89C964.165 280.691 950.77 284.091 935.314 284.091ZM935.52 254.21C943.901 254.21 950.908 251.908 956.54 247.306C962.173 242.635 966.364 236.384 969.111 228.553C971.928 220.722 973.336 211.998 973.336 202.381C973.336 192.695 971.928 183.937 969.111 176.106C966.364 168.206 962.173 161.92 956.54 157.249C950.908 152.578 943.901 150.243 935.52 150.243C926.934 150.243 919.79 152.578 914.088 157.249C908.455 161.92 904.231 168.206 901.414 176.106C898.666 183.937 897.293 192.695 897.293 202.381C897.293 211.998 898.666 220.722 901.414 228.553C904.231 236.384 908.455 242.635 914.088 247.306C919.79 251.908 926.934 254.21 935.52 254.21ZM1031.2 281V122.731H1067.37V149.109H1069.02C1071.9 139.973 1076.85 132.932 1083.86 127.986C1090.93 122.971 1099 120.464 1108.07 120.464C1110.13 120.464 1112.43 120.567 1114.98 120.773C1117.59 120.911 1119.75 121.151 1121.47 121.494V155.807C1119.89 155.257 1117.38 154.776 1113.95 154.364C1110.58 153.883 1107.32 153.643 1104.16 153.643C1097.36 153.643 1091.24 155.12 1085.82 158.074C1080.46 160.959 1076.23 164.977 1073.14 170.129C1070.05 175.281 1068.5 181.223 1068.5 187.955V281H1031.2ZM1168.64 231.335L1168.54 186.306H1174.52L1231.4 122.731H1274.98L1205.02 200.629H1197.29L1168.64 231.335ZM1134.64 281V69.9745H1171.94V281H1134.64ZM1233.97 281L1182.45 208.975L1207.59 182.7L1278.59 281H1233.97ZM1286.17 281V257.301L1367.78 154.982V153.643H1288.85V122.731H1413.43V148.182L1335.74 248.749V250.088H1416.11V281H1286.17Z" fill="white"/>
<defs>
<filter id="shadow" x="1428" y="70" width="95" height="36" filterUnits="userSpaceOnUse" color-interpolation-filters="sRGB">
<feFlood flood-opacity="0" result="BackgroundImageFix"/>
<feBlend mode="normal" in="SourceGraphic" in2="BackgroundImageFix" result="shape"/>
<feGaussianBlur stdDeviation="3.885" result="effect1_foregroundBlur"/>
</filter>
</defs>
</svg>
