<svg width="620" height="350" viewBox="0 0 620 350" fill="none" xmlns="http://www.w3.org/2000/svg">
  <rect width="620" height="350" rx="8" fill="white" stroke="#E0E0E0" stroke-width="2"/>

  <!-- Central bounded context -->
  <ellipse cx="300" cy="150" rx="90" ry="50" fill="white" stroke="#F26522" stroke-width="2.5"/>
  <line x1="265" y1="143" x2="335" y2="143" stroke="#F26522" stroke-width="2" opacity="0.4"/>
  <line x1="272" y1="153" x2="328" y2="153" stroke="#F26522" stroke-width="2" opacity="0.4"/>
  <line x1="280" y1="163" x2="320" y2="163" stroke="#F26522" stroke-width="2" opacity="0.3"/>

  <!-- Top-left context -->
  <ellipse cx="110" cy="80" rx="75" ry="42" fill="white" stroke="#1890FF" stroke-width="2"/>
  <line x1="78" y1="73" x2="142" y2="73" stroke="#1890FF" stroke-width="2" opacity="0.4"/>
  <line x1="85" y1="83" x2="135" y2="83" stroke="#1890FF" stroke-width="2" opacity="0.4"/>
  <line x1="90" y1="93" x2="130" y2="93" stroke="#1890FF" stroke-width="2" opacity="0.3"/>

  <!-- Top-right context -->
  <ellipse cx="490" cy="75" rx="72" ry="42" fill="white" stroke="#3DD68C" stroke-width="2"/>
  <line x1="460" y1="68" x2="520" y2="68" stroke="#3DD68C" stroke-width="2" opacity="0.4"/>
  <line x1="465" y1="78" x2="515" y2="78" stroke="#3DD68C" stroke-width="2" opacity="0.4"/>
  <line x1="472" y1="88" x2="508" y2="88" stroke="#3DD68C" stroke-width="2" opacity="0.3"/>

  <!-- Bottom-left context -->
  <ellipse cx="100" cy="260" rx="72" ry="42" fill="white" stroke="#1890FF" stroke-width="2"/>
  <line x1="70" y1="253" x2="130" y2="253" stroke="#1890FF" stroke-width="2" opacity="0.4"/>
  <line x1="75" y1="263" x2="125" y2="263" stroke="#1890FF" stroke-width="2" opacity="0.4"/>
  <line x1="82" y1="273" x2="118" y2="273" stroke="#1890FF" stroke-width="2" opacity="0.3"/>

  <!-- Bottom-center context -->
  <ellipse cx="320" cy="280" rx="85" ry="42" fill="white" stroke="#F26522" stroke-width="2"/>
  <line x1="285" y1="273" x2="355" y2="273" stroke="#F26522" stroke-width="2" opacity="0.4"/>
  <line x1="292" y1="283" x2="348" y2="283" stroke="#F26522" stroke-width="2" opacity="0.4"/>
  <line x1="300" y1="293" x2="340" y2="293" stroke="#F26522" stroke-width="2" opacity="0.3"/>

  <!-- Bottom-right context -->
  <ellipse cx="510" cy="220" rx="68" ry="38" fill="white" stroke="#3DD68C" stroke-width="2"/>
  <line x1="482" y1="213" x2="538" y2="213" stroke="#3DD68C" stroke-width="2" opacity="0.4"/>
  <line x1="487" y1="223" x2="533" y2="223" stroke="#3DD68C" stroke-width="2" opacity="0.4"/>
  <line x1="494" y1="233" x2="526" y2="233" stroke="#3DD68C" stroke-width="2" opacity="0.3"/>

  <!-- Relationship lines -->
  <!-- Self-Service to Customer Mgmt -->
  <line x1="170" y1="100" x2="225" y2="125" stroke="#666" stroke-width="1.5"/>
  <rect x="175" y="100" width="36" height="16" rx="3" fill="#555"/>
  <text x="193" y="111" text-anchor="middle" font-family="Inter, sans-serif" font-size="8" font-weight="600" fill="white">C/S</text>

  <!-- Customer Mgmt to Printing -->
  <line x1="380" y1="125" x2="430" y2="95" stroke="#666" stroke-width="1.5"/>
  <rect x="362" y="117" width="36" height="16" rx="3" fill="#555"/>
  <text x="380" y="128" text-anchor="middle" font-family="Inter, sans-serif" font-size="8" font-weight="600" fill="white">OHS</text>

  <!-- Customer Mgmt to Policy Mgmt -->
  <line x1="280" y1="198" x2="300" y2="240" stroke="#666" stroke-width="1.5"/>
  <rect x="262" y="190" width="36" height="16" rx="3" fill="#555"/>
  <text x="280" y="201" text-anchor="middle" font-family="Inter, sans-serif" font-size="8" font-weight="600" fill="white">ACL</text>

  <!-- Risk Mgmt to Policy Mgmt -->
  <line x1="170" y1="265" x2="240" y2="275" stroke="#666" stroke-width="1.5"/>
  <rect x="185" y="257" width="44" height="16" rx="3" fill="#555"/>
  <text x="207" y="268" text-anchor="middle" font-family="Inter, sans-serif" font-size="8" font-weight="600" fill="white">Partner</text>

  <!-- Printing to Debt Collection -->
  <line x1="490" y1="117" x2="505" y2="182" stroke="#666" stroke-width="1.5"/>
  <rect x="487" y="140" width="36" height="16" rx="3" fill="#555"/>
  <text x="505" y="151" text-anchor="middle" font-family="Inter, sans-serif" font-size="8" font-weight="600" fill="white">SK</text>

  <!-- Policy to Debt Collection -->
  <line x1="398" y1="268" x2="450" y2="240" stroke="#666" stroke-width="1.5"/>
  <rect x="380" y="260" width="36" height="16" rx="3" fill="#555"/>
  <text x="398" y="271" text-anchor="middle" font-family="Inter, sans-serif" font-size="8" font-weight="600" fill="white">ACL</text>

  <!-- Risk to Customer Mgmt -->
  <line x1="140" y1="225" x2="235" y2="175" stroke="#666" stroke-width="1.5"/>
</svg>
